<?xml version="1.0" encoding="utf-8"?>
<!-- Generator: Adobe Illustrator 28.3.0, SVG Export Plug-In . SVG Version: 6.00 Build 0)  -->
<svg version="1.1" id="Layer_1" xmlns="http://www.w3.org/2000/svg" xmlns:xlink="http://www.w3.org/1999/xlink" x="0px" y="0px"
	 viewBox="0 0 48 48" style="enable-background:new 0 0 48 48;" xml:space="preserve">
<style type="text/css">
	.st0{fill:none;stroke:#07193B;}
	.st1{fill:none;stroke:#07193B;stroke-linecap:round;stroke-linejoin:round;}
</style>
<path class="st0" d="M2.77,20.29c0-7.5,0-11.25,0.89-12.51C4.55,6.52,8.07,5.31,15.12,2.9l1.34-0.46c3.68-1.26,5.51-1.89,7.42-1.89
	c1.9,0,3.74,0.63,7.42,1.89l1.34,0.46c7.05,2.41,10.58,3.62,11.46,4.88c0.89,1.26,0.89,5.01,0.89,12.51c0,1.13,0,2.36,0,3.69
	c0,13.22-9.94,19.64-16.18,22.36c-1.69,0.74-2.54,1.11-4.93,1.11s-3.24-0.37-4.93-1.11C12.72,43.62,2.77,37.2,2.77,23.98
	C2.77,22.65,2.77,21.42,2.77,20.29z"/>
<path class="st1" d="M18.02,24.94l3.35,3.75l8.38-9.38"/>
</svg>
