<?xml version="1.0" encoding="utf-8"?>
<!-- Generator: Adobe Illustrator 28.3.0, SVG Export Plug-In . SVG Version: 6.00 Build 0)  -->
<svg version="1.1" id="Layer_1" xmlns="http://www.w3.org/2000/svg" xmlns:xlink="http://www.w3.org/1999/xlink" x="0px" y="0px"
	 viewBox="0 0 48 48" style="enable-background:new 0 0 48 48;" xml:space="preserve">
<style type="text/css">
	.st0{fill:none;stroke:#07193B;stroke-linecap:round;}
</style>
<path class="st0" d="M24,0.63v37.29 M24,47.24v-9.32 M24,37.92l6.99,6.99 M24,37.92l-6.99,6.99 M30.99,2.97L24,9.96l-6.99-6.99"/>
<path class="st0" d="M3.82,12.29l8.07,4.66 M11.89,16.95l24.22,13.98 M11.89,16.95L9.33,7.4 M11.89,16.95l-9.55,2.56 M36.11,30.93
	l8.07,4.66 M36.11,30.93l9.55-2.56 M36.11,30.93l2.56,9.55"/>
<path class="st0" d="M44.18,12.29l-8.07,4.66 M36.11,16.95L11.89,30.93 M36.11,16.95l2.56-9.55 M36.11,16.95l9.55,2.56 M11.89,30.93
	l-8.07,4.66 M11.89,30.93l-9.55-2.56 M11.89,30.93l-2.56,9.55"/>
</svg>
