<?xml version="1.0" encoding="utf-8"?>
<!-- Generator: Adobe Illustrator 28.3.0, SVG Export Plug-In . SVG Version: 6.00 Build 0)  -->
<svg version="1.1" id="Layer_1" xmlns="http://www.w3.org/2000/svg" xmlns:xlink="http://www.w3.org/1999/xlink" x="0px" y="0px"
	 viewBox="0 0 48 48" style="enable-background:new 0 0 48 48;" xml:space="preserve">
<style type="text/css">
	.st0{fill:none;stroke:#07193B;stroke-linecap:round;}
</style>
<path class="st0" d="M32.38,3.81l4.68,2.46c5.04,2.64,7.56,3.97,8.96,6.34c1.4,2.38,1.4,5.33,1.4,11.25v0.27
	c0,5.91,0,8.87-1.4,11.25c-1.4,2.38-3.92,3.7-8.96,6.34l-4.68,2.46c-4.11,2.16-6.17,3.24-8.38,3.24s-4.27-1.08-8.38-3.24l-4.68-2.46
	c-5.04-2.64-7.56-3.97-8.96-6.34c-1.4-2.38-1.4-5.33-1.4-11.25v-0.27c0-5.91,0-8.87,1.4-11.25c1.4-2.38,3.92-3.7,8.96-6.34
	l4.68-2.46c4.11-2.16,6.17-3.24,8.38-3.24S28.27,1.66,32.38,3.81z"/>
<path class="st0" d="M45.08,13.46l-9.37,4.68 M24,24L2.92,13.46 M24,24v22.25 M24,24c0,0,6.42-3.21,10.54-5.27
	c0.46-0.23,1.17-0.59,1.17-0.59 M35.71,18.14v8.2 M35.71,18.14L13.46,6.43"/>
</svg>
