<?xml version="1.0" encoding="utf-8"?>
<!-- Generator: Adobe Illustrator 28.3.0, SVG Export Plug-In . SVG Version: 6.00 Build 0)  -->
<svg version="1.1" id="Layer_1" xmlns="http://www.w3.org/2000/svg" xmlns:xlink="http://www.w3.org/1999/xlink" x="0px" y="0px"
	 viewBox="0 0 48 48" style="enable-background:new 0 0 48 48;" xml:space="preserve">
<style type="text/css">
	.st0{fill:none;stroke:#07193B;}
	.st1{fill:none;stroke:#07193B;stroke-linecap:round;}
</style>
<path class="st0" d="M2.95,23.94c0,8.82-1.17,17.91,1.91,20.65c3.08,2.74,9.21,2.74,19.14,2.74s16.06,0,19.14-2.74
	c3.08-2.74,1.91-11.83,1.91-20.65"/>
<path class="st0" d="M30.22,29.09l14.5-4.35c0.96-0.29,1.44-0.43,1.8-0.72c0.31-0.25,0.55-0.57,0.7-0.94
	c0.17-0.42,0.17-0.92,0.17-1.93c0-3.95,0-5.92-0.77-7.43c-0.67-1.31-1.74-2.38-3.05-3.05C42.07,9.9,40.09,9.9,36.15,9.9H11.85
	c-3.95,0-5.92,0-7.43,0.77c-1.31,0.67-2.38,1.74-3.05,3.05c-0.77,1.51-0.77,3.48-0.77,7.43c0,1,0,1.51,0.17,1.93
	c0.15,0.37,0.39,0.69,0.7,0.94c0.36,0.29,0.84,0.43,1.8,0.72l14.5,4.35"/>
<path class="st1" d="M28.68,25.11h-9.36c-0.65,0-1.17,0.52-1.17,1.17v5.06c0,0.48,0.29,0.91,0.74,1.09l1.64,0.66
	c2.23,0.89,4.72,0.89,6.95,0l1.64-0.66c0.44-0.18,0.74-0.61,0.74-1.09v-5.06C29.85,25.63,29.32,25.11,28.68,25.11z"/>
<path class="st1" d="M17.38,5.23C18.35,2.5,20.95,0.55,24,0.55c3.06,0,5.65,1.95,6.62,4.68"/>
</svg>
