<?xml version="1.0" encoding="utf-8"?>
<!-- Generator: Adobe Illustrator 28.3.0, SVG Export Plug-In . SVG Version: 6.00 Build 0)  -->
<svg version="1.1" id="Layer_1" xmlns="http://www.w3.org/2000/svg" xmlns:xlink="http://www.w3.org/1999/xlink" x="0px" y="0px"
	 viewBox="0 0 48 48" style="enable-background:new 0 0 48 48;" xml:space="preserve">
<style type="text/css">
	.st0{fill:none;stroke:#07193B;}
	.st1{fill:none;stroke:#07193B;stroke-linecap:round;}
</style>
<path class="st0" d="M39.83,18.63v-1.65C39.83,7.9,32.74,0.55,24,0.55S8.17,7.9,8.17,16.98v1.65c0,1.98-0.57,3.92-1.63,5.57
	l-2.6,4.04c-2.37,3.69-0.56,8.71,3.56,9.88c10.79,3.06,22.18,3.06,32.97,0c4.13-1.17,5.94-6.19,3.56-9.88l-2.6-4.04
	C40.39,22.55,39.83,20.61,39.83,18.63z"/>
<path class="st1" d="M13.45,40.42c1.54,4.1,5.68,7.04,10.55,7.04s9.02-2.94,10.55-7.04"/>
</svg>
