<?xml version="1.0" encoding="utf-8"?>
<!-- Generator: Adobe Illustrator 28.3.0, SVG Export Plug-In . SVG Version: 6.00 Build 0)  -->
<svg version="1.1" id="Layer_1" xmlns="http://www.w3.org/2000/svg" xmlns:xlink="http://www.w3.org/1999/xlink" x="0px" y="0px"
	 viewBox="0 0 48 48" style="enable-background:new 0 0 48 48;" xml:space="preserve">
<style type="text/css">
	.st0{fill:none;stroke:#07193B;}
	.st1{fill:none;stroke:#07193B;stroke-linecap:round;stroke-linejoin:round;}
	.st2{fill:none;stroke:#07193B;stroke-linecap:round;}
</style>
<path class="st0" d="M35.12,0.61H12.88c-2.71,0-4.07,0-5.16,0.38c-2.07,0.72-3.7,2.4-4.4,4.53c-0.37,1.13-0.37,2.52-0.37,5.31v32.75
	c0,2.01,2.3,3.07,3.76,1.74c0.86-0.78,2.15-0.78,3,0l1.13,1.03c1.5,1.37,3.76,1.37,5.26,0c1.5-1.37,3.76-1.37,5.26,0
	c1.5,1.37,3.76,1.37,5.26,0c1.5-1.37,3.76-1.37,5.26,0c1.5,1.37,3.76,1.37,5.26,0l1.13-1.03c0.86-0.78,2.15-0.78,3,0
	c1.46,1.33,3.76,0.27,3.76-1.74V10.83c0-2.79,0-4.18-0.37-5.31c-0.7-2.13-2.33-3.81-4.4-4.53C39.19,0.61,37.83,0.61,35.12,0.61z"/>
<path class="st1" d="M18.15,20.26L21.49,24l8.35-9.35"/>
<path class="st2" d="M13.48,32.19h21.05"/>
</svg>
