<?xml version="1.0" encoding="UTF-8"?>
<svg id="Layer_1" data-name="Layer 1" xmlns="http://www.w3.org/2000/svg" viewBox="0 0 23.81 23.81">
  <defs>
    <style>
      .cls-1 {
        fill: none;
        stroke: #646f79;
      }
    </style>
  </defs>
  <path class="cls-1" d="M4.99,16.51s0,.02,0,.02c0,0,0,.02,0,.02,0,.02,0,.05,0,.08,0,.06,0,.15,0,.25,0,.21,0,.49,0,.79v1.1s.01.05.01.05h13.84v-2.38h-.05s-6.86-.01-6.86-.01c-2.76,0-4.48,0-5.5,0-.51,0-.86,0-1.07.02-.11,0-.18,0-.24.01-.03,0-.05,0-.06,0,0,0-.02,0-.02,0,0,0,0,0-.01,0,0,0-.01.01-.02.02ZM4.99,16.51l.05.02M4.99,16.51h0l.05.02M5.04,16.53s1.36-.05,6.88-.05h6.86v2.29H5.04v-1.1c-.02-.6-.01-1.12,0-1.15ZM11.17.81l-.02-.04.02.04c.27-.14.44-.22.55-.27.11-.04.17-.05.22-.04,0,0,0,0,0,0,0,0,.01,0,.03.01.02,0,.05.02.09.04.08.04.19.09.33.16.28.14.68.34,1.18.6,1,.51,2.39,1.24,4.04,2.11,2.32,1.22,3.71,1.96,4.52,2.4.41.22.67.37.84.47.08.05.14.09.18.12.04.03.06.05.06.05l.09.14v8.16c0,4.01,0,6.06-.01,7.12,0,.53-.01.81-.03.97,0,.08-.01.12-.02.15,0,.03-.01.04-.02.05h0s-.02.04-.03.06c0,.02-.01.03-.02.04,0,0,0,.02-.02.02,0,0-.03.02-.05.03-.06.02-.15.03-.32.05-.16.01-.39.02-.72.03-1.1.03-3.29.03-7.67.03-.77,0-1.6,0-2.51,0s-1.74,0-2.51,0c-4.38,0-6.57,0-7.67-.03-.32,0-.55-.02-.72-.03-.16-.01-.26-.03-.32-.05-.03,0-.04-.02-.05-.03,0,0-.01-.01-.02-.02,0,0,0-.02-.01-.03,0,0,0,0,0-.01,0-.02-.01-.04-.03-.06h0s-.02-.03-.02-.05c0-.03-.01-.07-.02-.15-.01-.16-.02-.44-.03-.97-.01-1.06-.01-3.1-.01-7.12V6.6s.09-.14.09-.14l-.04-.02.04.02s.02-.02.06-.05c.04-.03.09-.06.17-.11.15-.09.39-.23.76-.43.73-.4,1.97-1.05,4.02-2.14,2.71-1.43,5.21-2.74,5.57-2.93ZM18.8,11.95h.05v-2.38H4.97v2.38h13.83ZM18.78,15.38h.05v-.05s.01-1.13.01-1.13v-1.13s.01-.05.01-.05H4.96v.05s.01,1.13.01,1.13v1.13s.01.05.01.05h13.79ZM18.8,22.25h.05v-.05s-.01-1.13-.01-1.13v-1.13s-.01-.05-.01-.05h-.05s-6.85-.01-6.85-.01c-1.88,0-3.6,0-4.85,0-.62,0-1.13,0-1.48,0-.18,0-.31,0-.41,0-.05,0-.08,0-.11,0-.01,0-.02,0-.03,0,0,0,0,0-.01,0,0,0,0,0,0,0,0,0,0,0,0,0,0,0,0,0-.02.01,0,0-.01.02-.01.02h0s0,0,0,0c0,0,0,0,0,0,0,0,0,.02,0,.02,0,.02,0,.04,0,.07,0,.06,0,.15,0,.25,0,.21,0,.49,0,.8v1.16h13.83Z"/>
</svg>