<?xml version="1.0" encoding="utf-8"?>
<!-- Generator: Adobe Illustrator 28.3.0, SVG Export Plug-In . SVG Version: 6.00 Build 0)  -->
<svg version="1.1" id="Layer_1" xmlns="http://www.w3.org/2000/svg" xmlns:xlink="http://www.w3.org/1999/xlink" x="0px" y="0px"
	 viewBox="0 0 48 48" style="enable-background:new 0 0 48 48;" xml:space="preserve">
<style type="text/css">
	.st0{fill:none;stroke:#07193B;}
	.st1{fill:none;stroke:#07193B;stroke-linecap:round;stroke-linejoin:round;}
	.st2{fill:none;stroke:#07193B;stroke-linecap:round;}
</style>
<path class="st0" d="M5.29,19.29c0-8.81,0-13.22,2.74-15.96c2.74-2.74,7.14-2.74,15.96-2.74s13.22,0,15.96,2.74
	c2.74,2.74,2.74,7.14,2.74,15.96v4.67c0,8.81,0,13.22-2.74,15.96c-2.74,2.74-7.14,2.74-15.96,2.74s-13.22,0-15.96-2.74
	c-2.74-2.74-2.74-7.14-2.74-15.96V19.29z"/>
<path class="st1" d="M5.29,26.3h37.39"/>
<path class="st1" d="M32.17,33.31h3.51"/>
<path class="st1" d="M12.3,33.31h3.51"/>
<path class="st1" d="M9.97,41.49v3.51c0,1.29,1.05,2.34,2.34,2.34h3.51c1.29,0,2.34-1.05,2.34-2.34v-2.34"/>
<path class="st1" d="M38.01,41.49v3.51c0,1.29-1.05,2.34-2.34,2.34h-3.51c-1.29,0-2.34-1.05-2.34-2.34v-2.34"/>
<path class="st1" d="M42.68,16.95h2.34c1.29,0,2.34,1.05,2.34,2.34v2.34c0,0.74-0.35,1.43-0.93,1.87l-3.74,2.8"/>
<path class="st1" d="M5.29,16.95H2.96c-1.29,0-2.34,1.05-2.34,2.34v2.34c0,0.74,0.35,1.43,0.93,1.87l3.74,2.8"/>
<path class="st2" d="M41.52,7.6H6.46"/>
</svg>
